<svg xmlns="http://www.w3.org/2000/svg" viewBox="0 0 24.000001 24.000001"><path d="m16.255 1030.37c-1.527.137-3.882 6.85-4.801 9.207-2.091 3.739-10.298 10.528-7.086 10.777 2.312.179 6.464-2.999 9.284-6.643-.08 2.6-.741 5.517.261 5.12 3.759-1.491 2.538-7.961 2.313-9.02.426-.237.924-.65 1.269-.877 0 0 .128.771 1.295 3.184 1.469 2.253 2.335.947 2.14.58-1-1.89-1.169-3.762-2.338-4.748-.346-.292-2.01.061-2.01.061.739-2.797 1.234-6.866-.032-7.575-.094-.052-.191-.074-.293-.064m-4.801 9.206l.834-2.186c0 0-7.369.124-7.3 4.342.012.745 3.468-2.568 5.485-2.307.303-.084.98.152.98.152" fill="#fff" fill-rule="evenodd" transform="translate(0-1028.36)"/></svg>