<svg xmlns="http://www.w3.org/2000/svg" viewBox="0 0 5000 5000" stroke="#fff" fill="#fff">
	<g transform="translate(11.991 1.072)">
		<g fill-rule="evenodd">
			<g fill="none">
				<path d="m1800.84 1895.81c70.01-31.882 87.02-15.352 394.72-131.57 135.88 9.854 168.81 115.5 401.64 107.34 122.95-242.04 255.63-386.81 394.72-467.43 167.35-62.27 348.55-124.64 515.9-74.44 257.12 93.2 440.08 459.59 422.42 547.06-63.17 420.44-304.47 646.73-585.15 775.59-229.66 57.07-370.49-24.906-476.08-264.88-37.34-140.1 16.04-319.68 77.905-408.57l-102.14-63.19c-185.19 55.11-293.18 183.47-389.52 322.87-42.22 108.5-87.23 213.9 86.56 560.91 90.31 159.64 157.62 323.05 657.86 415.49 299.76 94.53 547.85 45.538 785.97-31.16 158.06-83.88 454.22-167.55 713.26-553.99 148.35-289.11 191.76-542.03 249.3-799.82 48.17-485.87-82.904-652.6-285.77-996.76-254.14-382.55-546.68-576.94-984.94-672.13-433.14-64.26-869.64 133.85-1159.92 308.16-327.18 176.03-451.75 376.61-567.84 578.23-172.6 554.04-208.59 797.19-148.88 848.3" stroke-width="44.41"/>
				<g stroke-width="39.28">
					<g stroke-miterlimit="0">
						<path d="m1783.53 1731.34c66.24 16.338 131.43-18.16 205.93-84.41 123.81-97.81 215.28-125.02 306.51-133.93 90.9 3.463 252.48 119.25 391.26 188.91"/>
						<path d="m1887.4 1263.91c126.87 91.53 279.46 11.32 500.32-76.17 119.88-21.304 218.3-67.78 597.27 214.67"/>
						<path d="m2278.65 628.55c100.68 184.03 278.46 237.23 531.48 162.73 319.7-22.07 479.01 214.66 597.27 517.63"/>
						<path d="m3184.08 187.09c4.045 184.29 221.38 311.64 444.92 500.32 245.19 276.52 235.77 424.46 88.29 792.9"/>
						<path d="m3915.87 1781.39c141.63-94.91 380.89-414.61 377.04-580.25-15.779-156.99-33.394-279.47-110.17-413.76-167.12-211.23-161.74-374.02-149.35-501.9"/>
						<path d="m3865.68 2126.6c260.02-88.74 622.09-170.64 687.98-253.4 68.773-96.89 91.68-136.99 58.76-460.28-23.24-98.15 87-305.83 176.28-369.69"/>
						<path d="m3725.95 2370.16c220.68 80.11 363.35 2.47 521.1-43.28 110.87 34.728 226.83 39 417.22-19.04 156.05-56.45 191.59-151.87 230.25-212.94" stroke-linecap="round"/>
					</g>
					<path d="m3490.51 2581.37c104.47 70.53 208.54 141.7 344.51 162.73 98.83-7.706 206.71-23.335 278.73-62.32 301.37 161.65 382.67 99.38 491.67 79.64"/>
					<g stroke-miterlimit="0">
						<path d="m3187.54 2674.85c36.612 85.76 92.45 151.04 219.86 199.09 64.846-1.802 115.33 12.642 152.35 43.28 154.85 225.2 197.74 167.54 420.69 264.88"/>
						<path d="m2924.4 2500c-22.762 44.927-62.55 69.02-60.59 159.27 19.957 84.51 62.09 130.66 114.26 192.17 101.24 265.77 149.06 253.64 221.6 363.56"/>
						<path d="m2860.34 2356.31c-78.64 17.841-156.54 38.615-221.6 110.8-91.17 124.15-55.18 194.04-17.1 273.62-4.372 62.24-39.823 74.76-71.19 83.01"/>
						<path d="m2448.29 2252.24c28.606-20.866 68.67-47.51 98.7-39.626 35.833 19.258 77.56 36.26 124.04 43.893 153.85-72.36 142.5-58.55 189.31-45.624" stroke-linejoin="round" stroke-linecap="round"/>
					</g>
				</g>
				<g stroke-width="34.16" stroke-miterlimit="0">
					<path d="m2282.85 4849.12c-220-39.19-304.49-3.958-786.13-473.05-308.48-248.02-433.86-282.18-838.11-274.16-304.79-36.605-388.49-120.1-458.95-218.84" stroke-linejoin="round" stroke-linecap="round"/>
					<path d="m196.67 3792.05c-77.855-54.987-150-134.7-170.33-213.5-38.516-113.66 63.07-241.96 121.19-412.03 27.23-96.03-14.994-201.78-50.21-283.92-17.1-37.501 124.67-75.7 244.1-112.53 161.49-121.53 244.53-236.07 379.14-320.28 229.32-131 479.65-274.79 671.71-515.9 132.35-108.58 272.54-184.07 377.41-228.52"/>
				</g>
			</g>
			<g stroke-width="1.708">
				<path d="m311.99 3812.26c-73.34-55.57-135.05-142.38-182.28-268.11-41.758-101.1-14.03-176.99 16.09-306.65-30.332 11.263 3.866-113.45-16.298-192.97-23.25-39.24-45.78-76.29-55.19-171.22 8.127-19.538 30.497-66.748 101.5-65.37-4.435 25.623-60.45 39.545-12.07 153.9 32.373 49.17 26.562 57.895 28.801 99.06 80.83-109.89 104.79-134.65 177.72-174.14 73.974-40.05 162.74-59.55 246.43-54.38 32.12 3.951 112.08 55.14 72.71 136.77-57.39 119-140.13 131.17-225.46 171.69-57.868 27.479-143.67 36.433-199.68 59.37-32.08 13.14-73.33 25.13-95.95 80.56-13.365 49.02-49.12 73.22-17.417 229.53 8.563 47.41 81.995 205.54 169.76 262.13l9.25 34.834z"/>
				<path d="m138.55 3767.83c12.456 9.398 51.24 77.55 44.17 111.08-3.66 17.363 26.986 11.705 35.15 15.803 573.05-160.08 793.58-372.73 914.27-444.8 92.07-54.978 21.975-112.78-62.756-23.18-76.23 80.61-645.56 409.56-930.84 341.1z" stroke-miterlimit="0"/>
			</g>
			<g fill="none" stroke-linecap="round" stroke-width="34.16">
				<path d="m2739.16 1660.36c182.97-24.627 270.13 21.335 368.75 58.861"/>
				<path d="m3443.76 1984.1c109.74 128.92 199.55 275.16 231.98 436.27"/>
				<path d="m2919.2 2243.78c-21.68-145.55 86.34-390.43 254.49-571.3 225-189.86 304.11-94.51 335.86-86.56 147.38 134.55-12.435 323.4-70.98 389.52-108.89 126.95-200.82 241.22-322.01 351.44" stroke-miterlimit="0"/>
			</g>
			<path d="m3096.91 2129.05c3.63-35.12-.673-96.61 66.1-162.81 61.1-38.555 119.17-69.68 227.69-205.66 10.877-30.379 24.641-57.14 46.518-83.85 2.608 32.17-22.34 80.28-22.03 121.19-19.09 24.544-18.268 61.6-62.852 108.84 0 0-29.65 52.23-46.23 80.56-21.412 31.18-42.865 23.922-79.36 49.56-34.611 47.1-97.91 79.33-105.96 103.19z" stroke-width="1.708"/>
		</g>
		<ellipse transform="matrix(.95259-.30425.39123.92029 0 0)" ry="54.5" rx="154" cy="2969.82" cx="917.18"/>
		<path d="m1794.41 2522c-8.543-36.07 29.11-107.22 99.16-151.18 58.13-32.802 145.25-51.2 222.8-48.35 75.907 3.695 143.08 11.542 184.85 69.777 20.04 37.648-42.32 92.02-96.1 132.82-90.56 38.37-186.72 57.1-287.06 61.21-102.3-14.954-56.681-35.27-123.64-64.27zm-214.3 119.96c35.34-41.14 75.828-72.39 104.74-97.81 128.44-157.92 142.09-171.33 229.39-213.81 59.933-22.289 96.65-52.13 327.2-28.565 47.832 28.906 93.94 59.19 117.72 107.34 5.206 22.18 9.209 69.06-120.32 142.83-64.41 25.23-160.53 64.921-344.01 66.14-48.626-5.415-78.67-40.16-126.88-41.04-83.58-12.762-124.07 76.08-171.82 84.4-15.168 1.495-19.295-5.981-16.01-19.476z" fill-rule="evenodd" stroke-width="1.708"/>
	</g>
</svg>