<svg xmlns="http://www.w3.org/2000/svg" viewBox="0 0 24 24"><g transform="translate(0-1028.36)" fill="#fff" fill-rule="evenodd"><path d="m4.283 1028.44v1.051h5.35l12.799 12.799 1.051-1.049-12.801-12.801h-6.398"/><path d="m2.142 1030.58v1.15h5.25l12.799 12.799 1.15-1.15-12.799-12.799h-6.4m2.503906 3.6543a1.535162 1.535162 0 0 0 -.330078 .1192l.291.291a1.535162 1.535162 0 0 1 -.00195 -.064 1.535162 1.535162 0 0 1 .041016 -.3457m1.841793 1.8374a1.535162 1.535162 0 0 1 -.345703 .041 1.535162 1.535162 0 0 1 -.070312 0l.295.295a1.535162 1.535162 0 0 0 .121094 -.3321z"/><path d="m0 1033.16v6.4l12.8 12.8 6.4-6.4-12.8-12.8h-6.4m4 2.4641a1.535162 1.535162 0 0 1 1.535938 1.5359 1.535162 1.535162 0 0 1 -1.535938 1.5344 1.535162 1.535162 0 0 1 -1.535938 -1.5344 1.535162 1.535162 0 0 1 1.535938 -1.5359"/></g></svg>