<svg xmlns="http://www.w3.org/2000/svg" viewBox="0 0 24 24"><path d="m10.299 1.283l-.592 3.111a7.950513 7.950513 0 0 0 -1.464844 .607422l-2.619-1.785-2.406 2.406 1.781 2.615a7.950513 7.950513 0 0 0 -.609375 1.470703l-3.105.59v3.402l3.111.592a7.950513 7.950513 0 0 0 .607422 1.464843l-1.785 2.619 2.406 2.406 2.615-1.781a7.950513 7.950513 0 0 0 1.470703 .609375l.59 3.105h3.402l.592-3.111a7.950513 7.950513 0 0 0 1.464843 -.607422l2.619 1.785 2.406-2.406-1.781-2.615a7.950513 7.950513 0 0 0 .609375 -1.470703l3.105-.59v-3.402l-3.111-.592a7.950513 7.950513 0 0 0 -.607422 -1.464844l1.785-2.619-2.406-2.406-2.615 1.781a7.950513 7.950513 0 0 0 -1.470703 -.609375l-.59-3.105h-3.402m1.701172 6.734375a3.982143 3.982143 0 0 1 3.982422 3.982422 3.982143 3.982143 0 0 1 -3.982422 3.982422 3.982143 3.982143 0 0 1 -3.982422 -3.982422 3.982143 3.982143 0 0 1 3.982422 -3.982422" shape-rendering="auto" mix-blend-mode="normal" color-interpolation-filters="linearRGB" isolation="auto" white-space="normal" fill="#fff" solid-opacity="1" image-rendering="auto" solid-color="#000000" color="#000" color-rendering="auto" color-interpolation="sRGB"/></svg>