<svg xmlns="http://www.w3.org/2000/svg" viewBox="0 0 24.000001 24.000001"><path d="m16.254 2.01c-1.181.106-2.841 4.104-3.965 7.02 0 0-.625.025-1.477.139l-7.02-7.02-1.643 1.643 18.06 18.06 1.643-1.643-5.268-5.268c.004-1.609-.264-3.041-.359-3.492.426-.237.923-.65 1.268-.877 0 0 .129.77 1.297 3.184 1.469 2.253 2.334.947 2.139.58-1-1.89-1.169-3.762-2.338-4.748-.346-.292-2.01.061-2.01.061.739-2.797 1.233-6.865-.033-7.574-.094-.052-.191-.074-.293-.064m-9.785 8.623c-.879.632-1.501 1.507-1.48 2.738.007.456 1.309-.607 2.777-1.441l-1.297-1.297m3.117 3.117c-3.069 3.663-7.79 8.04-5.217 8.244 2.02.157 5.45-2.253 8.164-5.297l-2.947-2.947m3.902 3.902c-.159 1.723-.277 3.096.424 2.818.575-.228 1.023-.584 1.387-1.01l-1.811-1.811" fill="#fff" fill-rule="evenodd"/></svg>