<svg xmlns="http://www.w3.org/2000/svg" viewBox="0 0 24 24"><path d="m20 4l-2.311 2.311c-1.594-.772-3.485-1.311-5.689-1.311-8 0-12 7-12 7 0 0 2.114 3.662 6.314 5.686l-2.314 2.314 1 1 2.723-2.723 1.16-1.16 1.475-1.475 5.285-5.285 1.477-1.477 1.863-1.863 2.02-2.02-1-1m-8 2a6 6 0 0 1 4.236328 1.763672l-1.414 1.414a4 4 0 0 0 -2.822266 -1.177734 4 4 0 0 0 -2.220703 .675781c.84.669 1.583 2.811 1.846 3.699l-.16.16c-.497-.485-1.623-1.501-3.063-2.271a4 4 0 0 0 -.402344 1.736328 4 4 0 0 0 1.175781 2.824219l-1.408 1.408a6 6 0 0 1 -1.767578 -4.232422 6 6 0 0 1 6 -6m8.174 1.826l-2.436 2.436a6 6 0 0 1 .261719 1.738281 6 6 0 0 1 -6 6 6 6 0 0 1 -1.740234 -.259766l-.975.975c.848.179 1.751.285 2.715.285 8 0 12-7 12-7 0 0-1.276-2.231-3.826-4.174m-4.174 4.174l-4 4a4 4 0 0 0 4 -4" fill="#fff" fill-rule="evenodd"/></svg>